<svg xmlns="http://www.w3.org/2000/svg" xmlns:xlink="http://www.w3.org/1999/xlink" width="500" zoomAndPan="magnify" viewBox="0 0 375 374.999991" height="500" preserveAspectRatio="xMidYMid meet" version="1.0"><defs><g/><clipPath id="e67b9be53f"><path d="M 133 81.945312 L 217 81.945312 L 217 225.945312 L 133 225.945312 Z M 133 81.945312 " clip-rule="nonzero"/></clipPath><clipPath id="fd9d64a1e8"><path d="M 208 81.945312 L 359.40625 81.945312 L 359.40625 225.945312 L 208 225.945312 Z M 208 81.945312 " clip-rule="nonzero"/></clipPath><clipPath id="998553419b"><path d="M 15.90625 81.945312 L 168 81.945312 L 168 225.945312 L 15.90625 225.945312 Z M 15.90625 81.945312 " clip-rule="nonzero"/></clipPath></defs><g clip-path="url(#e67b9be53f)"><path fill="#004aad" d="M 216.65625 140.109375 L 167.003906 225.949219 L 133.304688 167.886719 L 183.015625 81.945312 L 216.65625 140.109375 " fill-opacity="1" fill-rule="nonzero"/></g><g clip-path="url(#fd9d64a1e8)"><path fill="#5271ff" d="M 291.960938 81.945312 L 208.382812 225.949219 L 276.152344 225.949219 L 359.445312 81.945312 L 291.960938 81.945312 " fill-opacity="1" fill-rule="nonzero"/></g><g clip-path="url(#998553419b)"><path fill="#5271ff" d="M 15.941406 81.945312 L 99.234375 225.949219 L 167.003906 225.949219 L 83.425781 81.945312 L 15.941406 81.945312 " fill-opacity="1" fill-rule="nonzero"/></g><g fill="#002366" fill-opacity="1"><g transform="translate(56.38381, 284.077311)"><g><path d="M 36.953125 -29.90625 C 36.566406 -29.90625 36.214844 -29.671875 36.039062 -29.265625 L 29.789062 -14.816406 L 23.363281 -29.671875 C 23.207031 -30.0625 22.898438 -30.296875 22.449219 -30.296875 C 21.960938 -30.296875 21.691406 -30.0625 21.535156 -29.671875 L 15.421875 -14.835938 L 9.171875 -29.265625 C 9.015625 -29.671875 8.644531 -29.90625 8.253906 -29.90625 L 1.226562 -29.90625 C 0.640625 -29.90625 0.351562 -29.515625 0.640625 -28.953125 L 14.351562 0 C 14.953125 1.226562 15.984375 1.226562 16.511719 0 L 22.605469 -14.601562 L 28.71875 0 C 29.226562 1.226562 30.257812 1.226562 30.859375 0 L 44.585938 -28.953125 C 44.859375 -29.515625 44.507812 -29.90625 43.984375 -29.90625 Z M 36.953125 -29.90625 "/></g></g><g transform="translate(101.594362, 284.077311)"><g><path d="M 22.371094 0 C 22.898438 0 23.167969 -0.273438 23.167969 -0.796875 L 23.167969 -5.976562 C 23.167969 -6.503906 22.898438 -6.777344 22.371094 -6.777344 L 10.921875 -6.777344 L 10.921875 -10.28125 L 20.8125 -10.28125 C 21.339844 -10.28125 21.613281 -10.574219 21.613281 -11.078125 L 21.613281 -15.867188 C 21.613281 -16.394531 21.339844 -16.667969 20.8125 -16.667969 L 10.921875 -16.667969 L 10.921875 -23.132812 L 22.371094 -23.132812 C 22.898438 -23.132812 23.167969 -23.402344 23.167969 -23.929688 L 23.167969 -29.109375 C 23.167969 -29.632812 22.898438 -29.90625 22.371094 -29.90625 L 3.757812 -29.90625 C 3.230469 -29.90625 2.960938 -29.632812 2.960938 -29.109375 L 2.960938 -0.796875 C 2.960938 -0.273438 3.230469 0 3.757812 0 Z M 22.371094 0 "/></g></g><g transform="translate(127.042335, 284.077311)"><g><path d="M 15.597656 0 C 24.433594 0 26.558594 -4.496094 26.558594 -8.410156 C 26.558594 -11.566406 25.078125 -14.117188 21.125 -15.402344 C 23.636719 -16.667969 25.3125 -18.984375 25.3125 -22.292969 C 25.3125 -26.441406 22.9375 -29.90625 15.402344 -29.90625 L 3.757812 -29.90625 C 3.230469 -29.90625 2.960938 -29.632812 2.960938 -29.109375 L 2.960938 -0.796875 C 2.960938 -0.273438 3.230469 0 3.757812 0 Z M 10.921875 -23.132812 L 15.265625 -23.132812 C 17.542969 -23.132812 18.300781 -22.136719 18.300781 -20.734375 C 18.300781 -19.375 17.542969 -18.300781 15.265625 -18.300781 L 10.921875 -18.300781 Z M 10.921875 -12.324219 L 15.441406 -12.324219 C 17.777344 -12.324219 18.574219 -11.117188 18.574219 -9.519531 C 18.574219 -7.984375 17.777344 -6.777344 15.441406 -6.777344 L 10.921875 -6.777344 Z M 10.921875 -12.324219 "/></g></g><g transform="translate(155.469297, 284.077311)"><g><path d="M 36.953125 -29.90625 C 36.566406 -29.90625 36.214844 -29.671875 36.039062 -29.265625 L 29.789062 -14.816406 L 23.363281 -29.671875 C 23.207031 -30.0625 22.898438 -30.296875 22.449219 -30.296875 C 21.960938 -30.296875 21.691406 -30.0625 21.535156 -29.671875 L 15.421875 -14.835938 L 9.171875 -29.265625 C 9.015625 -29.671875 8.644531 -29.90625 8.253906 -29.90625 L 1.226562 -29.90625 C 0.640625 -29.90625 0.351562 -29.515625 0.640625 -28.953125 L 14.351562 0 C 14.953125 1.226562 15.984375 1.226562 16.511719 0 L 22.605469 -14.601562 L 28.71875 0 C 29.226562 1.226562 30.257812 1.226562 30.859375 0 L 44.585938 -28.953125 C 44.859375 -29.515625 44.507812 -29.90625 43.984375 -29.90625 Z M 36.953125 -29.90625 "/></g></g><g transform="translate(200.67985, 284.077311)"><g><path d="M 17.953125 0.796875 C 27.707031 0.796875 34.210938 -5.335938 34.210938 -14.953125 C 34.210938 -24.570312 27.707031 -30.703125 17.953125 -30.703125 C 8.214844 -30.703125 1.753906 -24.570312 1.753906 -14.953125 C 1.753906 -5.335938 8.214844 0.796875 17.953125 0.796875 Z M 17.953125 -6.386719 C 13.007812 -6.386719 9.734375 -9.65625 9.734375 -14.953125 C 9.734375 -20.25 13.007812 -23.519531 17.953125 -23.519531 C 22.9375 -23.519531 26.246094 -20.25 26.246094 -14.953125 C 26.246094 -9.65625 22.9375 -6.386719 17.953125 -6.386719 Z M 17.953125 -6.386719 "/></g></g><g transform="translate(236.680845, 284.077311)"><g><path d="M 22.292969 -11.234375 C 25.234375 -12.773438 26.910156 -15.964844 26.910156 -20.289062 C 26.910156 -25.410156 24.609375 -29.90625 16.179688 -29.90625 L 3.757812 -29.90625 C 3.230469 -29.90625 2.960938 -29.632812 2.960938 -29.109375 L 2.960938 -0.796875 C 2.960938 -0.273438 3.230469 0 3.757812 0 L 10.164062 0 C 10.6875 0 10.960938 -0.273438 10.960938 -0.796875 L 10.960938 -10.203125 L 14.332031 -10.203125 L 19.140625 -0.605469 C 19.335938 -0.195312 19.625 0 20.054688 0 L 27.316406 0 C 27.921875 0 28.15625 -0.390625 27.882812 -0.953125 Z M 14.796875 -23.132812 C 16.394531 -23.132812 18.945312 -23.132812 18.945312 -20.210938 C 18.945312 -16.976562 15.90625 -16.976562 14.796875 -16.976562 L 10.960938 -16.976562 L 10.960938 -23.132812 Z M 14.796875 -23.132812 "/></g></g><g transform="translate(266.276039, 284.077311)"><g><path d="M 19.9375 0 C 20.464844 0 20.734375 -0.273438 20.734375 -0.796875 L 20.734375 -5.976562 C 20.734375 -6.503906 20.464844 -6.777344 19.9375 -6.777344 L 10.921875 -6.777344 L 10.921875 -29.109375 C 10.921875 -29.632812 10.648438 -29.90625 10.125 -29.90625 L 3.757812 -29.90625 C 3.230469 -29.90625 2.960938 -29.632812 2.960938 -29.109375 L 2.960938 -0.796875 C 2.960938 -0.273438 3.230469 0 3.757812 0 Z M 19.9375 0 "/></g></g><g transform="translate(287.849378, 284.077311)"><g><path d="M 13.765625 0 C 25.117188 0 30.0625 -5.589844 30.0625 -14.914062 C 30.0625 -24.398438 24.960938 -29.90625 13.765625 -29.90625 L 3.757812 -29.90625 C 3.230469 -29.90625 2.960938 -29.632812 2.960938 -29.109375 L 2.960938 -0.796875 C 2.960938 -0.273438 3.230469 0 3.757812 0 Z M 11 -23.132812 L 13.804688 -23.132812 C 19.414062 -23.132812 22.097656 -20.210938 22.097656 -15.03125 C 22.097656 -9.851562 19.414062 -6.777344 13.804688 -6.777344 L 11 -6.777344 Z M 11 -23.132812 "/></g></g></g></svg>